<mxfile host="Electron" modified="2023-07-09T03:48:48.344Z" agent="Mozilla/5.0 (Windows NT 10.0; Win64; x64) AppleWebKit/537.36 (KHTML, like Gecko) draw.io/21.6.1 Chrome/112.0.5615.204 Electron/24.6.1 Safari/537.36" etag="dGBpefXwLEru-kfdhkv0" version="21.6.1" type="device">
  <diagram name="PÃ¡gina-1" id="_Haj0Is49G3r-0-Jk69h">
    <mxGraphModel dx="1114" dy="704" grid="1" gridSize="10" guides="1" tooltips="1" connect="1" arrows="1" fold="1" page="1" pageScale="1" pageWidth="827" pageHeight="1169" math="0" shadow="0">
      <root>
        <mxCell id="0" />
        <mxCell id="1" parent="0" />
        <mxCell id="bQL8s3V62QEEgyPzVzo6-1" value="usuarios" style="whiteSpace=wrap;html=1;aspect=fixed;" vertex="1" parent="1">
          <mxGeometry x="550" y="30" width="100" height="100" as="geometry" />
        </mxCell>
        <mxCell id="bQL8s3V62QEEgyPzVzo6-2" value="Nombre" style="rounded=0;whiteSpace=wrap;html=1;" vertex="1" parent="1">
          <mxGeometry x="80" y="180" width="120" height="60" as="geometry" />
        </mxCell>
        <mxCell id="bQL8s3V62QEEgyPzVzo6-3" value="Apellido" style="rounded=0;whiteSpace=wrap;html=1;" vertex="1" parent="1">
          <mxGeometry x="220" y="180" width="120" height="60" as="geometry" />
        </mxCell>
        <mxCell id="bQL8s3V62QEEgyPzVzo6-4" value="Edad" style="rounded=0;whiteSpace=wrap;html=1;" vertex="1" parent="1">
          <mxGeometry x="360" y="180" width="120" height="60" as="geometry" />
        </mxCell>
        <mxCell id="bQL8s3V62QEEgyPzVzo6-5" value="dni" style="rounded=0;whiteSpace=wrap;html=1;" vertex="1" parent="1">
          <mxGeometry x="520" y="180" width="120" height="60" as="geometry" />
        </mxCell>
        <mxCell id="bQL8s3V62QEEgyPzVzo6-6" value="Localidad" style="rounded=0;whiteSpace=wrap;html=1;" vertex="1" parent="1">
          <mxGeometry x="680" y="180" width="120" height="60" as="geometry" />
        </mxCell>
        <mxCell id="bQL8s3V62QEEgyPzVzo6-7" value="Email" style="rounded=0;whiteSpace=wrap;html=1;" vertex="1" parent="1">
          <mxGeometry x="840" y="180" width="120" height="60" as="geometry" />
        </mxCell>
        <mxCell id="bQL8s3V62QEEgyPzVzo6-8" value="Password" style="rounded=0;whiteSpace=wrap;html=1;" vertex="1" parent="1">
          <mxGeometry x="1000" y="180" width="120" height="60" as="geometry" />
        </mxCell>
        <mxCell id="bQL8s3V62QEEgyPzVzo6-9" value="id" style="rounded=0;whiteSpace=wrap;html=1;" vertex="1" parent="1">
          <mxGeometry x="20" y="180" width="40" height="60" as="geometry" />
        </mxCell>
      </root>
    </mxGraphModel>
  </diagram>
</mxfile>
